<svg xmlns="http://www.w3.org/2000/svg" xmlns:xlink="http://www.w3.org/1999/xlink" width="36px" height="36px" viewBox="0 0 36 36" version="1.1">
  <title>aurea-logo 30x30 original</title>
  <g id="aurea-logo-30x30-original" stroke="none" stroke-width="1" fill="none" fill-rule="evenodd">
    <g id="favicon">
      <g id="Group-40" transform="translate(16.354423, 0.000000)" fill="#5BBBE8">
        <path d="M2.28020979,16.8739499 C3.37216783,16.5752463 4.46412587,16.2765428 5.55608392,15.9778392 C6.65433566,15.6791357 7.74314685,15.3804322 8.8413986,15.0817286 C9.93020979,14.7861366 10.9718182,14.4625411 11.9158741,13.8122385 C12.8001399,13.199274 13.5396503,12.3965082 14.1312587,11.3790493 C14.6567832,10.4829386 14.9840559,9.56504754 15.1099301,8.62226448 C15.2420979,7.62969749 15.1571329,6.61535004 14.8802098,5.660121 C14.6064336,4.67066551 14.1784615,3.80878133 13.59,3.06202247 C13.0015385,2.31526361 12.2588811,1.68985307 11.362028,1.18267934 C10.4588811,0.678617113 9.53685315,0.358133103 8.58965035,0.236784788 C7.64559441,0.115436474 6.67951049,0.19011236 5.69769231,0.454589455 C4.73160839,0.709732066 3.81272727,1.1422299 3.02286713,1.75208297 C2.26447552,2.33704408 1.62251748,3.08691443 1.09384615,3.98613656 C0.511678322,4.99114952 0.168671329,6.02416595 0.0742657343,7.08829732 C-0.0232867133,8.2115471 0.215874126,9.26945549 0.508531469,10.3460328 C0.801188811,11.4319447 1.09699301,12.5240795 1.3927972,13.6068799 C1.6886014,14.6990147 1.98440559,15.7849265 2.28020979,16.8739499" id="Fill-38"/>
      </g>
      <g id="Group-43" transform="translate(4.585192, 18.668971)" fill="#5BBBE8">
        <path d="M3.87755245,15.8468453 C4.7806993,16.3633535 5.71216783,16.674503 6.66566434,16.7927398 C7.65692308,16.9203111 8.66706294,16.8238548 9.62370629,16.5562662 C10.6086713,16.2793431 11.4772028,15.8499568 12.2293007,15.2649957 C12.9845455,14.6769231 13.6233566,13.9426102 14.1425874,13.0433881 C14.7279021,12.0383751 15.0709091,11.0084702 15.159021,9.94433881 C15.2565734,8.79930856 15.0205594,7.74140017 14.7184615,6.64615385 C14.4320979,5.5633535 14.1362937,4.48366465 13.8404895,3.4008643 C13.5478322,2.31806396 13.252028,1.23837511 12.9625175,0.155574762 C11.8674126,0.454278306 10.7817483,0.746758859 9.68979021,1.0454624 C8.60412587,1.34416595 7.51531469,1.64598099 6.42965035,1.93846154 C5.32195804,2.24027658 4.27405594,2.56076059 3.32370629,3.21417459 C2.43314685,3.83025065 1.69993007,4.63612792 1.10517483,5.65047537 C0.582797203,6.53414002 0.258671329,7.45203111 0.12965035,8.39170268 C0.00062937063,9.33137424 0.0667132867,10.2990493 0.334195804,11.2853933 C0.595384615,12.2499568 1.02020979,13.1678479 1.63384615,13.9550562 C2.22230769,14.7049265 2.97125874,15.3396716 3.87755245,15.8468453" id="Fill-41"/>
      </g>
      <path d="M23.8804368,29.7910112 C24.733234,30.3915298 25.6237934,30.8022472 26.5584088,31.0231634 C27.5244927,31.247191 28.5409263,31.26586 29.5258913,31.0947277 C30.539178,30.9173725 31.4454717,30.587554 32.254213,30.0834918 C33.0629543,29.5825411 33.7804368,28.9104581 34.3909263,28.0734659 C35.0045627,27.2364736 35.426241,26.3496975 35.6496675,25.4193604 C35.8888284,24.4423509 35.9014158,23.4373379 35.7440731,22.4541054 C35.5772899,21.439758 35.2405766,20.5312014 34.7370801,19.7346586 C34.2304368,18.9287813 33.5570102,18.2349179 32.7136536,17.6468453 C31.7664508,16.9747623 30.7563109,16.539153 29.6926745,16.3586863 C28.5786885,16.1564391 27.4867305,16.2964564 26.3727445,16.4800346 C25.2556116,16.6573898 24.1353319,16.8440795 23.018199,17.0276577 C21.8979193,17.2081245 20.7744927,17.3948142 19.654213,17.5783924 C19.8367305,18.6829732 20.0129543,19.787554 20.189178,20.8952463 C20.3716955,21.9998271 20.5447724,23.1075194 20.7209962,24.2121003 C20.9003668,25.3322385 21.1143529,26.3994814 21.6744927,27.3951599 C22.1968703,28.325497 22.9300871,29.1251513 23.8804368,29.7910112" id="Fill-44" fill="#5BBBE8" transform="translate(27.751248, 23.734183) rotate(-6.000000) translate(-27.751248, -23.734183) "/>
      <path d="M16.7968703,17.4421089 C15.6986186,17.737701 14.6066606,18.033293 13.5178494,18.335108 C12.4195976,18.6338116 11.3276396,18.9325151 10.2325347,19.2281072 C9.14057664,19.5299222 8.08008713,19.7819533 6.94407314,19.697943 C5.86784936,19.6201556 4.81680041,19.2996716 3.8035137,18.7302679 C2.89721999,18.2262057 2.1514158,17.5976837 1.55980741,16.8447018 C0.949317895,16.0637165 0.505611602,15.1396024 0.260157056,14.1750389 C0.00211509802,13.1886949 -0.0639688181,12.2241314 0.0619053078,11.2844598 C0.190926287,10.3447882 0.508758455,9.42689715 1.03428293,8.53389801 C1.5535137,7.63778738 2.18917804,6.89414002 2.93812908,6.31229041 C3.69652069,5.7242178 4.56190531,5.29794296 5.5500172,5.02413137 C6.5035137,4.75343129 7.51994727,4.66008643 8.50805915,4.78454624 C9.4584088,4.90589455 10.3898773,5.21704408 11.2993179,5.7273293 C12.3094578,6.29673293 13.1307864,7.01548833 13.7444228,7.886707 C14.3989682,8.80770959 14.7325347,9.83450303 15.025192,10.9141919 C15.3178494,12.0032152 15.6136536,13.0891271 15.9094578,14.1781504 C16.2084088,15.2671737 16.5010661,16.3530856 16.7968703,17.4421089" id="Fill-46" fill="#D85AA1"/>
    </g>
  </g>
</svg>
